Coordinates
version=1
nRows=15
nColumns=46
inDegrees=yes

Units are S.I. units (second, meters, Newtons, ...)
Angles are in degrees.

endheader
time	pelvis_tilt	pelvis_list	pelvis_rotation	pelvis_tx	pelvis_ty	pelvis_tz	bb_angle	bb_tx	bb_ty	bb_tz	hip_flexion_r	hip_adduction_r	hip_rotation_r	knee_angle_r	knee_angle_r_beta	ankle_angle_r	subtalar_angle_r	mtp_angle_r	crank_angle_r	hip_flexion_l	hip_adduction_l	hip_rotation_l	knee_angle_l	knee_angle_l_beta	ankle_angle_l	subtalar_angle_l	mtp_angle_l	crank_angle_l	lumbar_extension	lumbar_bending	lumbar_rotation	arm_flex_r	arm_add_r	arm_rot_r	elbow_flex_r	pro_sup_r	wrist_flex_r	wrist_dev_r	arm_flex_l	arm_add_l	arm_rot_l	elbow_flex_l	pro_sup_l	wrist_flex_l	wrist_dev_l
      2.50500000	    -20.49305792	      9.07438542	     -6.75765126	      0.30795454	      1.12855466	     -0.28432662	      0.00000000	      0.50000000	      0.00000000	      0.25000000	     37.17110104	     -9.97665253	      4.99961765	     30.44087763	      0.53129354	     -3.24269504	     -4.15006846	      0.00000000	      0.00000000	     66.16703912	     -2.88563166	     -5.23218594	    108.22826653	      1.88893959	    -14.06077087	     -7.81706321	      0.00000000	      0.00000000	    -54.81805306	     -6.95794450	      5.77994162	     41.73115472	    -28.30064812	      8.12702921	     86.63868243	     50.70116714	      0.00000000	      0.00000000	     52.49942952	     -9.12521467	     23.79452022	     65.30355639	     48.82680119	      0.00000000	      0.00000000
      2.51000000	    -20.43294302	      9.56027208	     -5.80030546	      0.30870379	      1.12837430	     -0.28371742	      0.00000000	      0.50000000	      0.00000000	      0.25000000	     35.88610876	    -11.01873048	      4.08532653	     29.09618486	      0.50782423	     -4.14762517	     -4.16631245	      0.00000000	      0.00000000	     67.13140329	     -2.29485571	     -5.23584411	    109.18374147	      1.90561578	    -13.31578648	     -6.98201171	      0.00000000	      0.00000000	    -54.85221776	     -7.17551059	      5.43155779	     40.93329870	    -29.13864156	      7.71983362	     86.49008072	     50.65091792	      0.00000000	      0.00000000	     53.14166444	     -8.45344932	     24.67602998	     64.45266076	     48.79349092	      0.00000000	      0.00000000
      2.51500000	    -20.70464942	     10.13993817	     -5.12914799	      0.30905431	      1.12799626	     -0.28253266	      0.00000000	      0.50000000	      0.00000000	      0.25000000	     35.07767152	    -11.83596776	      3.70121388	     27.85177931	      0.48610525	     -4.87302248	     -3.91706357	      0.00000000	      0.00000000	     68.40874403	     -2.06733987	     -5.57341023	    110.05156463	      1.92076215	    -12.83144129	     -6.94574345	      0.00000000	      0.00000000	    -54.60659620	     -7.75322431	      4.78077839	     40.53762992	    -29.44212846	      7.59692023	     86.38772869	     50.62972052	      0.00000000	      0.00000000	     53.38902771	     -8.33623442	     24.75238140	     64.36099159	     48.78838898	      0.00000000	      0.00000000
      2.52000000	    -20.95540984	     10.73519788	     -4.08284486	      0.30950982	      1.12829263	     -0.28188359	      0.00000000	      0.50000000	      0.00000000	      0.25000000	     34.12460078	    -12.90090164	      2.94950165	     26.52100658	      0.46287889	     -6.16432744	     -3.88191174	      0.00000000	      0.00000000	     69.60589126	     -1.38789718	     -5.77669186	    110.69272493	      1.93195251	    -12.27521211	     -6.66196691	      0.00000000	      0.00000000	    -54.48428786	     -7.96787727	      4.02220139	     39.83804240	    -29.78710239	      7.42458954	     86.17477526	     50.59194530	      0.00000000	      0.00000000	     53.69147649	     -8.01841954	     25.04758083	     64.16002673	     48.79128880	      0.00000000	      0.00000000
      2.52500000	    -21.04507955	     11.07344517	     -2.94021277	      0.30997331	      1.12908540	     -0.28112347	      0.00000000	      0.50000000	      0.00000000	      0.25000000	     32.88311511	    -13.76012415	      1.85465437	     25.23290183	      0.44039722	     -7.33766389	     -4.03261574	      0.00000000	      0.00000000	     70.62447529	     -0.80916147	     -5.74676981	    111.28961837	      1.94237026	    -11.67401224	     -6.17888255	      0.00000000	      0.00000000	    -54.63299483	     -8.13007766	      4.84394416	     37.31289328	    -31.47514382	      4.75157669	     87.72495050	     50.68362720	      0.00000000	      0.00000000	     55.61080096	     -6.15698015	     27.55612221	     61.28848031	     48.75000485	      0.00000000	      0.00000000
      2.53000000	    -21.38344505	     11.45728873	     -1.79704339	      0.31014010	      1.12980134	     -0.28040718	      0.00000000	      0.50000000	      0.00000000	      0.25000000	     32.02035024	    -14.60244965	      0.87639073	     24.13255485	      0.42119254	     -8.56206678	     -4.08261822	      0.00000000	      0.00000000	     71.89319620	     -0.22962271	     -5.81413502	    111.77992973	      1.95092781	    -11.12534162	     -6.02978128	      0.00000000	      0.00000000	    -54.58387482	     -8.16853808	      4.05859666	     36.90401686	    -31.71393259	      4.58379103	     87.49274514	     50.64035055	      0.00000000	      0.00000000	     55.91569741	     -5.94395844	     27.76148003	     61.31684609	     48.78832442	      0.00000000	      0.00000000
      2.53500000	    -21.55789437	     11.73031035	     -0.59706510	      0.31020369	      1.13132085	     -0.27952968	      0.00000000	      0.50000000	      0.00000000	      0.25000000	     30.89087432	    -15.33998647	     -0.19786481	     22.95261716	      0.40059874	     -9.94857781	     -4.19831637	      0.00000000	      0.00000000	     72.94118856	      0.40909131	     -5.74902271	    112.09857569	      1.95648923	    -10.80540512	     -5.51928476	      0.00000000	      0.00000000	    -54.80862104	     -8.10990918	      3.37790601	     36.75299316	    -32.31004668	      4.51876235	     87.29629323	     50.61556851	      0.00000000	      0.00000000	     56.72093295	     -5.60028564	     29.11862536	     60.96995014	     48.89829456	      0.00000000	      0.00000000
      2.54000000	    -21.95296025	     12.11558987	      0.65972586	      0.31028709	      1.13287400	     -0.27858103	      0.00000000	      0.50000000	      0.00000000	      0.25000000	     30.07749499	    -16.16588403	     -1.27167777	     21.94257851	      0.38297024	    -11.38221745	     -4.41783463	      0.00000000	      0.00000000	     74.14201569	      1.09352629	     -5.84852508	    112.26665878	      1.95942284	    -10.37724870	     -5.12672130	      0.00000000	      0.00000000	    -54.87162324	     -8.09844192	      2.64504920	     36.28235038	    -32.62935322	      4.21922599	     87.15240579	     50.57722998	      0.00000000	      0.00000000	     57.29094411	     -5.46308919	     29.73793383	     60.89337898	     48.96208218	      0.00000000	      0.00000000
      2.54500000	    -22.28396642	     12.38532824	      1.83707787	      0.31026088	      1.13483496	     -0.27754224	      0.00000000	      0.50000000	      0.00000000	      0.25000000	     29.22704569	    -16.81943209	     -2.26536894	     20.96646469	      0.36593384	    -12.99796186	     -4.57999684	      0.00000000	      0.00000000	     75.22892386	      1.73112904	     -5.83415483	    112.33909845	      1.96068715	     -9.89416910	     -4.61390278	      0.00000000	      0.00000000	    -55.07877631	     -8.04471943	      2.16407046	     35.83350003	    -33.03074867	      3.55177747	     87.19017765	     50.53955784	      0.00000000	      0.00000000	     58.06617397	     -5.31786904	     30.85521547	     60.66355175	     49.06439616	      0.00000000	      0.00000000
      2.55000000	    -22.65311356	     12.71104698	      3.02853593	      0.31013319	      1.13706014	     -0.27655960	      0.00000000	      0.50000000	      0.00000000	      0.25000000	     28.50174896	    -17.54444397	     -3.30448256	     20.15746090	      0.35181406	    -14.55516816	     -4.75866135	      0.00000000	      0.00000000	     76.29623768	      2.35339805	     -5.98404229	    112.26101537	      1.95932434	     -9.43312221	     -4.08170677	      0.00000000	      0.00000000	    -55.30875450	     -8.00170981	      1.65883104	     35.23684482	    -33.43927727	      2.84141613	     87.33691298	     50.52000157	      0.00000000	      0.00000000	     58.83927253	     -5.09306369	     31.77978123	     60.50552870	     49.15620550	      0.00000000	      0.00000000
      2.55500000	    -23.24445335	     12.97760885	      4.05022569	      0.30964504	      1.13916832	     -0.27528660	      0.00000000	      0.50000000	      0.00000000	      0.25000000	     28.22385259	    -18.10595488	     -4.03600680	     19.60813719	      0.34222655	    -15.94273376	     -4.71472521	      0.00000000	      0.00000000	     77.55538287	      2.77236971	     -6.18145231	    112.06539246	      1.95591008	     -9.11256404	     -3.81626720	      0.00000000	      0.00000000	    -55.38541691	     -8.09540153	      1.06460547	     35.20106638	    -33.81322060	      2.67852276	     87.23909977	     50.49056137	      0.00000000	      0.00000000	     59.49835335	     -4.86542652	     31.86627797	     60.71022735	     49.19217562	      0.00000000	      0.00000000
      2.56000000	    -23.44412617	     13.14703349	      5.35408997	      0.30940019	      1.14217354	     -0.27453095	      0.00000000	      0.50000000	      0.00000000	      0.25000000	     27.33062233	    -18.71592879	     -5.20472417	     18.95490376	      0.33082548	    -17.88661320	     -5.27533349	      0.00000000	      0.00000000	     78.34425163	      3.59057398	     -6.15405622	    111.74404171	      1.95030145	     -8.89396647	     -3.38218257	      0.00000000	      0.00000000	    -55.84380321	     -7.80444620	      0.50604330	     34.75106855	    -34.29382072	      2.20895331	     87.10914700	     50.43904187	      0.00000000	      0.00000000	     60.08693602	     -4.69413788	     32.63346952	     60.74490274	     49.28265841	      0.00000000	      0.00000000
      2.56500000	    -23.92161206	     13.34275417	      6.42211184	      0.30885405	      1.14503840	     -0.27319298	      0.00000000	      0.50000000	      0.00000000	      0.25000000	     27.00275152	    -19.22086568	     -5.98794562	     18.58569765	      0.32438162	    -19.52797361	     -5.50814855	      0.00000000	      0.00000000	     79.31991302	      4.08091246	     -6.32578503	    111.21493493	      1.94106679	     -8.76789224	     -3.12053419	      0.00000000	      0.00000000	    -56.18760252	     -7.84732370	      0.78328920	     33.30213963	    -35.09176070	      0.04701052	     88.13567470	     50.46876216	      0.00000000	      0.00000000	     61.68192155	     -4.03739880	     34.85413944	     59.92320613	     49.40367699	      0.00000000	      0.00000000
      2.57000000	    -24.30479734	     13.53533119	      7.52846887	      0.30823679	      1.14812404	     -0.27201964	      0.00000000	      0.50000000	      0.00000000	      0.25000000	     26.66651925	    -19.76903389	     -6.79438361	     18.46925148	      0.32234925	    -21.01150565	     -5.78648817	      0.00000000	      0.00000000	     80.13380232	      4.65481149	     -6.53041686	    110.57872078	      1.92996276	     -8.64234364	     -2.85580572	      0.00000000	      0.00000000	    -56.57652942	     -7.61906007	      0.18721971	     33.23325768	    -35.29254854	     -0.14372862	     88.07380635	     50.44569031	      0.00000000	      0.00000000	     62.32487996	     -3.81796372	     34.90653261	     60.12544624	     49.43571215	      0.00000000	      0.00000000
      2.57500000	    -24.80830390	     13.72990981	      8.51236868	      0.30756535	      1.15112463	     -0.27087323	      0.00000000	      0.50000000	      0.00000000	      0.25000000	     26.61458095	    -20.28928940	     -7.40721919	     18.54348455	      0.32364486	    -22.43004514	     -6.13866105	      0.00000000	      0.00000000	     80.98372474	      5.11739181	     -6.82121084	    109.83611256	      1.91700180	     -8.51838396	     -2.61653703	      0.00000000	      0.00000000	    -56.89297463	     -7.53201425	     -0.36553622	     33.18912306	    -35.47497989	     -0.51606756	     88.05552253	     50.41221221	      0.00000000	      0.00000000	     63.00717468	     -3.68998414	     35.11192403	     60.38651333	     49.49420633	      0.00000000	      0.00000000
